# xmcd
#
# Track frame offsets:
#  150
#  19507
#  34612
#  67795
#  92317
#  109992
#  125432
#  145987
#  163377
#  185507
#
# Disc length: 2705 seconds
#
# Revision: 0
# Processed by: cddbd v1.4PL0 Copyright (c) Steve Scherf et al.
# Submitted via: AltoMP3_Maker 3.0
#
DISCID=7e0a8f0a
DTITLE=Paul Filipowicz and the Madison Blues All Stars - Never Had It So Good
DYEAR=1900
DGENRE=
TTITLE0=Nuckle Buster
TTITLE1=Hot Chili
TTITLE2=Fresh Off The Farm
TTITLE3=55 Miles
TTITLE4=Guitar Jones
TTITLE5=Mean Dog Blues
TTITLE6=Blue Bird Lounge
TTITLE7=Mr Lucky
TTITLE8=The Wind That Howls
TTITLE9=Hi Heel Sneakers
EXTD=
EXTT0=
EXTT1=
EXTT2=
EXTT3=
EXTT4=
EXTT5=
EXTT6=
EXTT7=
EXTT8=
EXTT9=
PLAYORDER=
